<svg width="30" height="16" viewBox="0 0 30 16" fill="none" xmlns="http://www.w3.org/2000/svg">
<path d="M0 14.5C0 13.6716 0.671573 13 1.5 13H28.5C29.3284 13 30 13.6716 30 14.5C30 15.3284 29.3284 16 28.5 16H1.5C0.671573 16 0 15.3284 0 14.5Z" fill="white"/>
<path d="M4 7.5C4 6.67157 4.67157 6 5.5 6H28.5C29.3284 6 30 6.67157 30 7.5C30 8.32843 29.3284 9 28.5 9H5.5C4.67157 9 4 8.32843 4 7.5Z" fill="white"/>
<path d="M11 1.5C11 0.671573 11.6716 0 12.5 0H28.5C29.3284 0 30 0.671573 30 1.5C30 2.32843 29.3284 3 28.5 3H12.5C11.6716 3 11 2.32843 11 1.5Z" fill="white"/>
</svg>
